<?xml version="1.0" standalone="no"?>
<!DOCTYPE svg PUBLIC "-//W3C//DTD SVG 20010904//EN"
 "http://www.w3.org/TR/2001/REC-SVG-20010904/DTD/svg10.dtd">
<svg version="1.0" xmlns="http://www.w3.org/2000/svg"
 width="740.000000pt" height="740.000000pt" viewBox="0 0 740.000000 740.000000"
 preserveAspectRatio="xMidYMid meet">

<g transform="translate(0.000000,740.000000) scale(0.100000,-0.100000)"
fill="#000000" stroke="none">
<path d="M4815 6115 c-28 -6 -60 -16 -71 -23 -18 -9 -25 -8 -39 8 -27 30 -53
24 -135 -30 -129 -87 -234 -100 -276 -34 -16 23 -16 26 2 39 42 32 -139 11
-204 -24 -14 -8 -22 -8 -22 -1 0 24 -23 5 -88 -72 -129 -155 -176 -242 -141
-263 6 -4 8 -22 4 -45 -7 -42 11 -95 41 -121 11 -9 40 -24 66 -34 33 -12 54
-28 67 -51 11 -19 36 -42 56 -51 31 -15 41 -15 88 -3 28 7 69 24 91 37 36 23
43 24 135 17 53 -4 101 -8 106 -9 6 -1 15 -3 21 -3 21 -3 37 -64 36 -133 -2
-53 3 -80 22 -124 25 -54 45 -71 47 -37 0 9 3 12 5 5 3 -7 12 -9 20 -6 8 3 14
1 14 -3 0 -10 -108 -55 -177 -75 -33 -9 -52 -9 -82 -1 -62 19 -151 15 -189 -8
-18 -11 -35 -20 -37 -20 -3 0 -19 23 -36 50 -34 55 -32 54 -57 40 -9 -6 -38
-19 -64 -30 -35 -14 -48 -25 -48 -39 0 -11 4 -22 9 -26 6 -3 21 -43 35 -88 26
-83 56 -127 89 -127 9 0 17 5 17 10 0 6 -6 10 -14 10 -23 0 -53 46 -70 105
-28 96 -18 125 39 111 40 -10 56 -46 57 -128 1 -76 8 -69 26 25 12 65 27 54
63 -46 28 -77 73 -122 131 -131 51 -8 92 4 104 31 4 10 10 56 13 102 6 82 7
86 37 103 18 10 58 25 90 34 67 17 74 12 73 -51 -1 -24 -4 -32 -7 -20 -3 11
-11 -23 -18 -76 -14 -112 -80 -323 -98 -312 -11 8 -17 10 -39 12 -7 0 -37 19
-66 41 -29 22 -65 43 -80 46 -66 15 -68 16 -43 25 12 5 22 16 22 26 -1 16 -2
16 -13 2 -17 -22 -67 -37 -145 -46 -66 -7 -67 -7 -30 -16 l38 -9 -20 -28 c-11
-15 -21 -38 -22 -51 -3 -23 0 -24 59 -24 35 0 61 4 60 10 -3 16 64 10 108 -10
22 -10 47 -17 54 -16 13 2 13 0 1 -14 -24 -29 -46 -35 -101 -25 -30 4 -62 11
-71 15 -11 4 -18 3 -18 -5 0 -6 -15 -44 -34 -83 -35 -75 -54 -147 -38 -147 5
0 15 -19 21 -42 20 -75 67 -111 160 -124 57 -7 167 11 192 32 8 8 25 14 36 14
11 0 32 9 46 20 31 25 38 25 32 3 -3 -10 2 -3 10 15 20 43 37 48 73 22 23 -17
38 -21 64 -16 42 8 142 86 187 148 l35 46 43 -76 c59 -104 66 -111 95 -86 22
19 22 19 -1 -14 -13 -18 -80 -85 -150 -149 -69 -63 -125 -119 -123 -125 1 -5
-1 -7 -6 -4 -12 7 -79 -50 -70 -59 4 -4 -9 -39 -29 -79 -21 -39 -36 -75 -35
-80 10 -33 -81 -401 -96 -392 -4 2 -7 -8 -8 -24 -1 -34 -92 -247 -117 -275
-10 -11 -16 -27 -14 -36 3 -9 0 -23 -5 -30 -8 -11 -8 -10 -4 4 3 11 2 16 -5
12 -5 -4 -7 -15 -4 -25 3 -10 -3 -38 -14 -62 -10 -24 -25 -68 -32 -98 -7 -30
-20 -68 -31 -85 -10 -16 -18 -35 -18 -42 0 -6 -5 -24 -12 -40 -6 -15 -11 -31
-10 -35 1 -5 -3 -8 -8 -8 -16 0 -12 32 20 134 20 65 30 120 31 169 2 131 136
620 234 857 34 82 119 249 141 275 8 11 13 15 10 8 -4 -6 -1 -15 5 -19 9 -5
10 4 5 36 -6 40 -24 86 -31 78 -13 -14 -119 -204 -171 -306 l-64 -125 -37 0
c-27 0 -39 5 -44 19 -7 17 -8 17 -8 2 -1 -10 -8 -82 -16 -160 -7 -79 -22 -245
-31 -370 -10 -125 -21 -225 -26 -222 -4 3 -8 -8 -8 -24 0 -16 -9 -37 -20 -47
-20 -18 -23 -18 -68 -2 -59 21 -76 22 -68 1 5 -12 -6 -39 -31 -73 -1 -2 -9 2
-18 9 -12 10 -20 9 -41 -5 -20 -13 -40 -16 -78 -12 -28 2 -61 1 -72 -4 -12 -4
-79 -19 -149 -33 -119 -24 -130 -25 -152 -10 -14 9 -32 13 -41 8 -9 -3 -33 -6
-53 -5 -37 2 -169 -45 -169 -60 0 -5 5 -9 12 -9 33 0 142 -120 124 -137 -3 -4
-57 -10 -119 -14 -61 -4 -152 -15 -202 -24 -49 -9 -112 -20 -140 -24 l-50 -7
75 -17 c72 -17 259 -34 232 -21 -9 4 -3 14 21 30 l35 23 38 -19 c43 -23 94
-26 112 -8 9 9 12 8 12 -7 0 -19 6 -20 87 -15 48 3 107 3 131 1 l44 -3 -42
-19 c-64 -29 -113 -34 -129 -15 -15 18 -57 21 -96 6 -22 -9 -29 -7 -44 12 -12
14 -29 21 -49 21 -34 0 -111 -21 -127 -35 -5 -5 -12 -51 -15 -103 -3 -52 -9
-97 -13 -101 -26 -26 -208 -9 -278 26 -63 33 -109 35 -170 9 -72 -31 -279
-172 -279 -191 0 -4 19 -5 43 -2 26 3 58 0 86 -10 54 -20 133 -20 196 -2 48
15 153 32 169 28 4 -2 13 1 20 6 6 5 53 17 105 27 85 16 96 17 120 3 17 -11
66 -18 146 -22 123 -7 488 -43 515 -51 20 -6 556 -73 651 -81 l75 -6 -22 -43
c-11 -24 -29 -73 -39 -109 l-18 -66 -358 0 -359 0 0 61 0 62 28 -6 c15 -3 34
-1 42 4 11 7 -1 9 -38 7 -28 -2 -54 2 -56 7 -3 6 -5 -23 -5 -62 l-1 -73 -1180
0 -1180 0 1 -77 0 -78 124 -245 c68 -135 124 -239 124 -232 1 11 21 13 95 10
52 -1 92 0 90 4 -2 3 5 4 15 1 13 -3 31 6 53 26 18 17 36 31 39 31 11 0 59
-49 59 -59 0 -14 770 -3 788 11 9 8 15 3 23 -21 l11 -31 206 3 c114 1 295 1
402 0 107 -1 209 -1 225 0 41 3 75 16 75 29 0 5 7 8 15 4 9 -3 15 0 15 9 0 8
5 15 10 15 6 0 10 -6 10 -14 0 -8 7 -13 16 -12 9 0 19 -5 22 -13 3 -10 -1 -12
-17 -8 -11 3 -21 1 -21 -4 0 -5 175 -9 418 -9 399 0 418 1 450 20 39 24 42 24
42 5 0 -9 9 -15 25 -15 14 0 25 -4 25 -8 0 -17 776 -22 1127 -8 l161 7 5 -23
c2 -13 5 81 6 207 2 340 17 622 41 780 51 333 160 801 255 1094 30 91 62 198
70 236 34 144 13 326 -41 361 -19 13 -40 16 -94 12 -120 -9 -243 -86 -305
-193 -13 -22 -52 -103 -85 -180 -57 -128 -92 -193 -76 -140 9 32 26 242 26
330 0 166 -39 281 -123 368 -26 26 -47 49 -47 51 0 1 22 17 48 34 58 37 100
95 109 146 5 32 2 40 -30 69 -34 33 -61 48 -139 80 l-37 16 16 31 c18 38 12
93 -14 122 -13 14 -30 19 -67 18 -28 0 -76 6 -106 15 -41 12 -82 15 -165 12
-132 -6 -164 -16 -161 -50 0 -14 4 -23 7 -21 3 2 12 -11 21 -29 22 -47 12 -97
-26 -127 -25 -19 -27 -20 -13 -3 17 20 17 21 -8 27 l-27 7 3 102 3 102 -27 -3
c-19 -3 -27 1 -27 12 0 9 6 16 14 16 8 0 16 6 19 13 6 18 44 -64 40 -88 l-3
-20 9 20 c6 14 -2 52 -26 127 -23 69 -32 114 -27 125 4 10 6 36 5 59 -2 33 8
60 50 140 77 147 90 191 96 324 4 87 2 130 -10 177 l-16 63 24 24 c28 28 32
46 11 46 -8 0 -17 15 -20 36 -4 19 -17 45 -28 56 -17 17 -19 23 -7 27 22 7 69
58 69 75 0 15 -3 15 -30 1 -38 -20 -45 -19 -97 6 -35 17 -42 25 -38 40 5 16 1
19 -23 19 -24 0 -35 9 -66 56 -30 46 -35 63 -30 89 4 22 0 46 -11 69 -20 42
-25 44 -43 15 l-14 -21 -28 27 c-36 34 -90 45 -155 30z m303 -871 c34 -23 52
-67 52 -126 1 -72 -74 -222 -129 -258 -42 -27 -118 -38 -151 -20 -22 12 -23
15 -17 139 l5 126 56 59 c90 96 134 115 184 80z m-993 -145 c10 -15 -1 -23
-20 -15 -9 3 -13 10 -10 16 8 13 22 13 30 -1z m273 -83 c25 -24 27 -33 27
-107 0 -87 -7 -99 -57 -99 -56 0 -118 87 -134 188 -7 47 1 52 84 48 42 -2 59
-8 80 -30z m782 -389 c0 -5 -4 -5 -10 -2 -6 3 -10 -4 -10 -16 0 -12 -3 -20 -6
-16 -3 3 -3 20 1 38 5 23 10 28 16 18 5 -8 9 -18 9 -22z m-961 -400 c1 -5 -3
-5 -9 -2 -5 3 -10 16 -9 28 0 21 1 21 9 2 5 -11 9 -24 9 -28z m621 -312 c-7
-9 -15 -13 -17 -11 -7 7 7 26 19 26 6 0 6 -6 -2 -15z m-373 -282 c-3 -10 -5
-4 -5 12 0 17 2 24 5 18 2 -7 2 -21 0 -30z m-20 -215 c-3 -8 -6 -5 -6 6 -1 11
2 17 5 13 3 -3 4 -12 1 -19z m157 -684 c7 -19 2 -18 -19 6 -16 17 -16 20 -3
15 9 -4 19 -13 22 -21z m-44 -20 c0 -8 5 -14 12 -14 6 0 8 -3 4 -7 -4 -5 -14
1 -22 11 -16 23 -19 40 -4 31 6 -3 10 -13 10 -21z m-45 -14 c-3 -5 -1 -10 4
-10 6 0 11 -7 11 -15 0 -19 -14 -19 -29 -2 -8 10 -7 17 1 25 15 15 21 16 13 2z
m-35 -50 c0 -5 -2 -10 -4 -10 -3 0 -8 5 -11 10 -3 6 -1 10 4 10 6 0 11 -4 11
-10z m-1005 -120 c3 -5 -1 -10 -10 -10 -9 0 -13 5 -10 10 3 6 8 10 10 10 2 0
7 -4 10 -10z m465 -50 c0 -5 -6 -10 -14 -10 -8 0 -18 5 -21 10 -3 6 3 10 14
10 12 0 21 -4 21 -10z m-955 -218 c-3 -3 -11 0 -18 7 -9 10 -8 11 6 5 10 -3
15 -9 12 -12z m16 -21 c24 -11 78 -28 119 -39 41 -11 68 -23 60 -26 -8 -2 -61
-14 -118 -26 -56 -11 -130 -27 -165 -35 -75 -18 -122 -18 -161 -2 l-30 13 54
41 c31 24 60 39 68 35 10 -3 13 -1 8 6 -8 14 59 51 95 52 15 0 46 -9 70 -19z
m-826 -1020 c-6 -5 -25 10 -25 20 0 5 6 4 14 -3 8 -7 12 -15 11 -17z m-55 -11
c0 -5 8 -10 17 -10 13 0 14 -3 5 -12 -8 -8 -15 -8 -27 2 -17 14 -20 30 -5 30
6 0 10 -4 10 -10z m2760 -83 c0 -16 -35 -1 -38 16 -3 16 -1 17 17 5 12 -7 21
-17 21 -21z"/>
<path d="M5013 5167 c-62 -70 -70 -95 -69 -192 1 -78 3 -90 19 -93 44 -9 137
142 145 235 7 87 -40 112 -95 50z"/>
<path d="M2570 5239 c-112 -36 -593 -186 -915 -285 -66 -20 -199 -61 -295 -91
-294 -93 -290 -88 -290 -308 0 -239 -13 -561 -21 -540 -6 15 -8 16 -10 5 -2
-8 -6 48 -9 125 -3 77 -7 -239 -8 -701 -2 -760 0 -842 14 -848 30 -11 49 -6
249 73 110 43 201 77 203 76 1 -1 -9 -22 -23 -46 -25 -44 -33 -103 -16 -113
10 -7 319 -74 504 -111 l118 -23 202 75 c111 41 228 84 260 95 81 28 74 46
-28 69 -44 10 -172 38 -285 62 -201 42 -205 44 -208 69 -4 30 39 128 65 149 8
8 160 71 337 140 204 81 320 131 318 139 -2 8 3 10 14 6 15 -6 16 -1 11 41 -4
27 -7 430 -8 897 l-1 849 26 26 26 26 183 0 c157 0 181 -2 178 -15 -7 -23 -3
-65 9 -110 9 -32 15 -40 33 -40 13 0 31 6 41 13 18 13 18 16 1 67 -9 29 -30
66 -45 84 l-28 31 -179 0 c-145 0 -184 -3 -210 -16 -17 -9 -34 -14 -37 -11 -3
3 -6 45 -6 94 0 107 9 104 -170 47z m43 -109 c-3 -11 -14 -20 -24 -20 -12 0
-19 7 -19 20 0 14 7 20 24 20 19 0 23 -4 19 -20z m-93 -111 c0 -9 -6 -19 -13
-22 -8 -3 -13 3 -13 17 0 13 6 23 13 23 7 0 13 -8 13 -18z m-95 1 c-3 -5 -10
-10 -16 -10 -5 0 -9 5 -9 10 0 6 7 10 16 10 8 0 12 -4 9 -10z m-55 -49 c0 -48
-1 -49 -40 -65 -54 -21 -60 -20 -60 9 0 14 -4 25 -8 25 -4 0 -223 -72 -487
-160 -263 -88 -485 -160 -493 -160 -7 0 -12 7 -10 16 2 10 166 70 548 198 300
101 546 184 548 185 1 0 2 -21 2 -48z m87 9 c1 -17 -2 -30 -7 -30 -6 0 -10 5
-10 12 0 6 -8 4 -19 -6 -19 -17 -19 -17 -16 1 2 10 4 19 5 21 2 1 4 7 5 12 1
6 3 12 4 15 0 3 9 5 19 5 12 0 18 -9 19 -30z m163 -39 c0 -10 -41 -27 -90 -37
-45 -8 -37 -1 25 25 57 23 65 24 65 12z m-6 -40 c-14 -13 -54 -23 -54 -14 0
10 52 32 59 26 3 -2 0 -7 -5 -12z m-129 -11 c-3 -5 -13 -10 -21 -10 -8 0 -12
5 -9 10 3 6 13 10 21 10 8 0 12 -4 9 -10z m135 -14 c0 -11 -46 -36 -66 -36
-21 0 32 41 64 49 1 1 2 -5 2 -13z m-130 -20 c0 -3 -4 -8 -10 -11 -5 -3 -10
-1 -10 4 0 6 5 11 10 11 6 0 10 -2 10 -4z m-115 -15 c-6 -5 -75 -31 -155 -59
-209 -73 -239 -82 -256 -82 -8 0 -17 -7 -20 -15 -4 -8 -10 -13 -14 -10 -5 3
-79 -20 -166 -50 -143 -50 -184 -59 -158 -36 5 4 160 59 344 121 184 62 349
119 365 126 35 15 74 18 60 5z m75 0 c0 -5 -11 -11 -25 -13 -17 -4 -25 -1 -25
8 0 8 11 14 25 14 14 0 25 -4 25 -9z m175 -1 c6 -9 -44 -40 -65 -40 -20 0 -9
15 23 32 17 9 33 17 34 17 1 1 4 -3 8 -9z m-257 -32 c-3 -7 -33 -21 -69 -32
-35 -12 -66 -23 -69 -26 -3 -3 -12 -6 -20 -8 -8 -2 -30 -10 -48 -18 -26 -12
-31 -18 -22 -29 8 -10 7 -16 -6 -23 -12 -6 -13 -11 -5 -16 7 -4 17 -4 24 1 7
5 35 18 62 28 28 10 56 22 63 28 7 5 15 7 19 4 3 -3 18 0 34 8 32 17 49 19 49
7 0 -5 -24 -16 -52 -26 -29 -9 -115 -40 -190 -68 -134 -50 -167 -56 -134 -23
9 9 16 18 16 20 0 2 -27 -7 -60 -21 -58 -23 -114 -33 -94 -16 5 5 52 24 104
42 52 18 100 37 107 42 7 5 14 5 18 -1 3 -6 -10 -17 -30 -25 -19 -8 -35 -20
-35 -25 0 -17 20 -13 27 5 4 10 13 14 27 10 17 -4 24 1 33 24 6 17 8 32 3 35
-5 3 -44 -8 -87 -24 -43 -17 -118 -44 -168 -61 -128 -45 -146 -52 -141 -58 3
-2 23 3 46 12 44 17 80 21 80 8 0 -5 -15 -13 -32 -19 -18 -6 -91 -32 -163 -57
-71 -25 -131 -46 -132 -46 -2 0 -3 8 -3 18 0 11 8 17 25 18 14 1 33 5 43 9 9
5 22 9 29 11 26 5 93 38 93 46 0 4 -18 1 -40 -8 -23 -9 -44 -14 -47 -10 -10
10 -6 11 152 66 83 28 186 65 230 82 44 16 93 32 109 35 16 3 41 10 55 16 66
27 187 75 194 76 5 1 7 -4 5 -11z m-348 -17 c0 -5 -26 -18 -57 -29 -32 -11
-66 -23 -75 -27 -13 -5 -18 -2 -18 8 0 11 13 18 38 23 20 4 42 10 47 14 9 7
35 15 58 19 4 0 7 -3 7 -8z m-672 -33 c-4 -27 -28 -36 -28 -10 0 20 8 32 22
32 5 0 8 -10 6 -22z m1017 -4 c-11 -8 -31 -17 -45 -20 -14 -3 -50 -15 -81 -25
-30 -10 -62 -19 -69 -19 -52 0 136 78 190 79 24 0 25 0 5 -15z m55 -4 c0 -5
-4 -10 -10 -10 -5 0 -10 5 -10 10 0 6 5 10 10 10 6 0 10 -4 10 -10z m208 -2
c-6 -19 -55 -40 -81 -35 -18 3 -15 7 23 25 52 25 63 27 58 10z m-773 -16 c-6
-5 -22 -13 -37 -20 -31 -13 -39 1 -10 17 20 12 60 15 47 3z m-645 -62 c0 -61
-7 -73 -54 -81 -16 -4 -18 3 -18 56 0 56 1 60 28 72 43 18 44 18 44 -47z m570
39 c0 -16 -71 -42 -83 -30 -7 7 -3 13 14 19 13 5 31 12 39 15 23 9 30 8 30 -4z
m845 -10 c-4 -5 -15 -9 -25 -9 -10 0 -25 -6 -32 -13 -7 -7 -24 -13 -37 -14
-30 -2 -23 4 36 32 46 22 70 24 58 4z m-180 -19 c-27 -12 -35 -12 -35 0 0 6
12 10 28 9 24 0 25 -1 7 -9z m-765 -8 c0 -4 -13 -13 -30 -19 -35 -13 -53 3
-18 16 29 12 48 13 48 3z m948 -3 c-4 -12 -139 -61 -147 -54 -2 3 18 14 45 25
27 12 58 25 69 30 28 12 37 12 33 -1z m-248 -8 c0 -15 -2 -16 -277 -110 -142
-49 -329 -114 -415 -145 -112 -39 -158 -51 -158 -42 0 8 8 16 18 19 9 3 69 23
132 46 204 74 232 83 460 162 244 85 240 83 240 70z m-783 -27 c-3 -3 -16 -4
-29 -2 l-23 5 25 10 c23 10 41 1 27 -13z m-339 -6 c-4 -27 -28 -36 -28 -10 0
20 8 32 22 32 5 0 8 -10 6 -22z m1207 13 c-6 -5 -21 -12 -35 -15 l-25 -7 25
15 c28 17 50 21 35 7z m-928 -23 c-3 -8 -6 -5 -6 6 -1 11 2 17 5 13 3 -3 4
-12 1 -19z m1091 11 c-3 -10 -119 -58 -140 -59 -39 -1 84 61 135 69 5 0 7 -4
5 -10z m-248 -9 c0 -13 -34 -30 -59 -30 -12 0 -21 -3 -21 -8 0 -4 -19 -12 -42
-18 -24 -6 -128 -41 -233 -78 -104 -37 -208 -73 -230 -80 -37 -13 -209 -75
-247 -91 -12 -5 -18 -2 -18 8 0 9 43 29 133 60 72 25 193 67 267 93 307 108
435 153 443 153 4 1 7 -3 7 -9z m-883 -16 c-2 -2 -28 -13 -58 -23 -30 -11 -49
-20 -43 -20 6 -1 31 6 54 14 42 15 63 13 44 -4 -16 -15 -76 -31 -113 -31 -49
0 -107 -17 -127 -38 -16 -16 -16 -17 -1 -20 14 -3 25 -22 13 -22 -2 0 -12 -3
-21 -6 -14 -6 -16 -1 -13 31 3 38 4 39 68 60 36 12 81 29 100 40 42 22 82 34
93 28 5 -3 7 -7 4 -9z m473 -11 c0 -13 -17 -23 -63 -36 -34 -11 -88 -30 -120
-43 -62 -25 -87 -30 -87 -15 0 8 24 18 110 48 8 3 24 7 35 8 12 2 43 14 70 28
28 14 51 25 53 26 1 1 2 -7 2 -16z m410 -12 c0 -15 -7 -18 -167 -72 -81 -28
-262 -91 -401 -140 -139 -49 -259 -89 -267 -89 -46 0 5 25 173 83 238 83 522
183 587 206 60 22 75 24 75 12z m-794 -14 c7 -6 -38 -27 -57 -27 -5 0 -9 9 -9
20 0 16 6 19 30 17 17 -2 33 -7 36 -10z m874 3 c0 -12 -48 -32 -64 -27 -8 3
31 26 62 36 1 1 2 -4 2 -9z m-960 -30 c0 -8 -60 -30 -82 -30 -21 0 -4 18 25
28 42 13 57 14 57 2z m90 -10 c0 -5 -4 -10 -10 -10 -5 0 -10 5 -10 10 0 6 5
10 10 10 6 0 10 -4 10 -10z m790 0 c0 -5 -9 -10 -21 -10 -11 0 -18 -3 -16 -7
3 -5 -10 -9 -29 -10 -43 -2 -43 3 -1 21 39 17 67 20 67 6z m-820 -10 c0 -5 -7
-10 -15 -10 -8 0 -15 5 -15 10 0 6 7 10 15 10 8 0 15 -4 15 -10z m120 -33 c0
-8 -33 -25 -75 -40 -60 -21 -75 -23 -75 -12 0 8 1 15 3 15 1 0 34 11 72 25 39
13 71 24 73 24 1 1 2 -5 2 -12z m580 3 c0 -5 -4 -10 -9 -10 -6 0 -13 5 -16 10
-3 6 1 10 9 10 9 0 16 -4 16 -10z m124 1 c3 -5 -8 -14 -26 -20 -41 -14 -48
-14 -42 3 3 8 12 12 19 10 7 -3 16 -1 20 5 8 13 22 14 29 2z m-164 -21 c-20
-13 -33 -13 -25 0 3 6 14 10 23 10 15 0 15 -2 2 -10z m-724 -9 c-10 -15 -256
-94 -265 -85 -7 7 0 10 124 52 125 42 150 48 141 33z m679 -9 c-18 -16 -245
-91 -245 -82 0 6 1 10 3 10 2 0 50 18 108 40 98 37 155 51 134 32z m270 0
c-11 -10 -185 -72 -200 -72 -23 0 18 22 90 49 78 29 129 40 110 23z m-945 -32
c0 -11 -138 -55 -147 -47 -10 10 8 27 30 28 12 0 38 7 57 14 43 17 60 18 60 5z
m950 1 c0 -5 -13 -14 -29 -19 -23 -8 -31 -7 -35 4 -3 8 -2 13 2 11 4 -3 16 -1
27 4 27 11 35 11 35 0z m-70 -28 c0 -11 -210 -87 -217 -79 -9 8 -10 7 97 48
98 38 120 43 120 31z m80 -13 c0 -5 -15 -13 -32 -19 -64 -19 -355 -120 -460
-160 -59 -23 -115 -41 -125 -41 -30 1 0 14 157 68 80 28 213 76 295 106 164
60 165 60 165 46z m-1120 -8 c0 -4 -31 -19 -70 -34 -46 -17 -70 -22 -70 -14 0
7 28 22 63 33 72 25 77 26 77 15z m886 -1 c-3 -4 -18 -11 -33 -14 -16 -3 -36
-9 -45 -12 -10 -4 -18 -3 -18 3 0 12 45 30 78 31 13 1 21 -3 18 -8z m-716 -14
c0 -17 -20 -26 -157 -67 -62 -19 -113 -37 -113 -41 0 -4 48 8 108 27 130 42
162 49 162 38 0 -11 -238 -94 -268 -94 -17 0 -22 6 -22 28 0 27 4 29 143 74
78 26 143 47 145 47 1 1 2 -5 2 -12z m375 -6 c-9 -15 -91 -43 -111 -39 -12 2
3 12 41 25 69 25 78 26 70 14z m715 -11 c0 -5 -4 -10 -10 -10 -5 0 -10 5 -10
10 0 6 5 10 10 10 6 0 10 -4 10 -10z m-42 -25 c-11 -9 -232 -84 -236 -80 -3 3
-3 7 -1 9 12 10 225 82 232 78 5 -2 7 -5 5 -7z m-418 -4 c0 -9 -24 -21 -42
-21 -6 0 -6 6 2 15 14 16 40 20 40 6z m-400 -10 c0 -10 -25 -21 -48 -21 -12 1
-10 5 8 15 29 17 40 18 40 6z m-227 -26 c2 -11 -294 -115 -306 -108 -18 10 14
26 149 73 142 49 154 52 157 35z m517 -2 c0 -7 -144 -63 -200 -77 -47 -13 9
16 100 51 91 35 100 37 100 26z m-275 -102 c-14 -13 -157 -63 -163 -56 -5 4 6
9 103 47 46 18 74 22 60 9z m765 -7 c0 -8 -4 -12 -10 -9 -5 3 -10 10 -10 16 0
5 5 9 10 9 6 0 10 -7 10 -16z m-42 -5 c-4 -12 -162 -73 -513 -199 -241 -86
-252 -89 -257 -76 -3 7 340 137 662 251 106 38 113 40 108 24z m92 -5 c0 -8
-5 -12 -10 -9 -6 4 -8 11 -5 16 9 14 15 11 15 -7z m-810 -22 c0 -9 -118 -47
-126 -40 -3 3 21 15 53 26 67 23 73 25 73 14z m-351 -33 c-22 -12 -28 -18 -16
-19 14 0 17 -8 15 -46 -1 -40 -5 -47 -32 -60 l-31 -14 33 6 c17 3 32 1 32 -4
0 -5 -15 -15 -32 -22 -59 -22 -73 -29 -60 -29 7 -1 28 5 47 13 38 16 58 4 24
-14 -18 -10 -149 -60 -156 -60 -10 0 0 30 10 31 10 0 10 2 0 6 -30 11 -10 33
43 49 30 9 54 18 51 20 -2 2 -26 -3 -53 -11 -27 -8 -50 -15 -50 -15 -1 0 -1
30 0 66 l1 66 95 33 c98 34 139 36 79 4z m1051 1 c-24 -15 -142 -51 -148 -46
-5 6 8 11 108 46 46 16 66 16 40 0z m60 -10 c0 -5 -5 -10 -11 -10 -5 0 -7 5
-4 10 3 6 8 10 11 10 2 0 4 -4 4 -10z m-50 -34 c0 -8 -55 -33 -147 -66 -82
-28 -193 -69 -248 -90 -274 -104 -539 -200 -553 -200 -44 0 26 34 183 89 94
32 188 67 210 77 46 20 536 202 548 203 4 1 7 -5 7 -13z m140 4 c0 -5 -7 -10
-16 -10 -8 0 -12 5 -9 10 3 6 10 10 16 10 5 0 9 -4 9 -10z m-335 -30 c-28 -12
-47 -12 -40 0 3 6 18 10 33 9 24 0 25 -1 7 -9z m-85 -30 c-16 -11 -40 -13 -40
-5 0 8 44 24 50 18 2 -2 -2 -8 -10 -13z m335 0 c3 -5 1 -10 -4 -10 -6 0 -11 5
-11 10 0 6 2 10 4 10 3 0 8 -4 11 -10z m-390 -19 c-3 -5 -20 -13 -38 -16 -17
-4 -37 -12 -44 -17 -7 -5 -47 -22 -90 -37 -43 -15 -86 -31 -95 -36 -10 -4 -18
-3 -18 2 0 6 33 23 73 38 39 15 99 38 132 51 65 25 90 29 80 15z m329 -11 c-6
-6 -98 -44 -205 -84 -401 -153 -598 -227 -744 -279 -82 -30 -158 -58 -167 -62
-10 -4 -18 -3 -18 3 0 11 127 65 340 143 80 29 291 108 470 175 179 67 327
120 329 118 3 -3 0 -9 -5 -14z m-1427 -92 c-2 -18 -4 -6 -4 27 0 33 2 48 4 33
2 -15 2 -42 0 -60z m1433 59 c0 -13 -80 -47 -109 -47 -35 0 27 35 107 59 1 1
2 -5 2 -12z m-1413 -49 c-3 -8 -6 -5 -6 6 -1 11 2 17 5 13 3 -3 4 -12 1 -19z
m1411 1 c-4 -13 -158 -72 -166 -64 -9 8 2 15 75 45 75 31 97 36 91 19z m-1068
-9 c0 -12 -23 -24 -99 -50 -62 -21 -85 -20 -64 1 10 10 133 56 156 58 4 1 7
-3 7 -9z m424 -19 c-15 -13 -215 -83 -221 -77 -7 6 11 14 132 60 84 32 111 37
89 17z m465 4 c-34 -18 -256 -105 -269 -105 -5 0 -10 4 -10 9 0 5 44 23 98 41
53 18 115 41 137 51 48 21 81 24 44 4z m271 -15 c0 -5 -4 -10 -10 -10 -5 0
-10 5 -10 10 0 6 5 10 10 10 6 0 10 -4 10 -10z m-1150 -9 c0 -5 -12 -13 -27
-19 -55 -21 -124 -42 -140 -42 -33 0 4 21 78 45 86 27 89 28 89 16z m860 -20
c0 -10 -24 -21 -43 -21 -7 0 -3 7 7 15 22 17 36 19 36 6z m250 5 c0 -11 -19
-15 -25 -6 -3 5 1 10 9 10 9 0 16 -2 16 -4z m-61 -37 c-17 -10 -716 -273 -814
-306 -38 -13 -74 -22 -80 -20 -5 2 14 12 42 21 29 10 56 24 61 32 4 8 21 16
37 18 26 4 625 226 725 269 35 15 58 4 29 -14z m-1065 2 c-19 -18 -154 -59
-154 -47 0 7 35 23 78 37 75 25 95 28 76 10z m166 -21 c0 -5 -5 -10 -11 -10
-5 0 -7 5 -4 10 3 6 8 10 11 10 2 0 4 -4 4 -10z m600 2 c0 -9 -127 -62 -149
-62 -30 0 -1 24 54 45 65 25 95 30 95 17z m-760 -10 c0 -5 -12 -13 -27 -20
l-28 -12 28 6 c45 8 28 -17 -22 -34 -23 -8 -40 -16 -38 -18 2 -2 23 3 47 11
50 18 50 18 50 6 0 -5 -22 -17 -50 -26 -27 -9 -50 -21 -50 -25 0 -5 19 -3 41
5 48 17 59 18 59 6 0 -7 -149 -71 -166 -71 -2 0 -4 6 -4 14 0 8 14 19 32 25
17 6 29 14 25 17 -3 3 -14 1 -25 -5 -27 -14 -32 -14 -32 3 0 7 15 18 33 24
l32 11 -32 -5 c-30 -5 -32 -4 -30 22 2 24 10 30 67 50 72 25 90 28 90 16z
m580 -17 c-30 -17 -40 -18 -40 -6 0 10 22 18 50 19 8 1 4 -5 -10 -13z m-50
-13 c0 -5 -11 -14 -25 -20 -31 -14 -35 -15 -35 -3 0 7 22 19 58 30 1 1 2 -3 2
-7z m587 2 c-3 -3 -12 -4 -19 -1 -8 3 -5 6 6 6 11 1 17 -2 13 -5z m-52 -14 c3
-6 0 -12 -7 -14 -20 -7 -493 -184 -520 -195 -12 -6 -79 -31 -148 -57 -170 -63
-291 -110 -312 -119 -12 -5 -18 -3 -18 6 0 9 79 43 208 92 114 42 335 126 492
186 157 61 288 110 292 110 4 1 10 -4 13 -9z m-625 -20 c0 -6 -6 -12 -12 -15
-86 -26 -303 -111 -314 -122 -12 -13 -15 -12 -20 2 -4 9 -5 17 -3 19 2 2 45
17 94 34 50 17 126 44 170 61 44 16 81 30 83 30 1 1 2 -4 2 -9z m-350 -14 c0
-3 -4 -8 -10 -11 -5 -3 -10 -1 -10 4 0 6 5 11 10 11 6 0 10 -2 10 -4z m977
-13 c-9 -8 -263 -103 -297 -110 -55 -12 -2 14 128 64 124 47 186 64 169 46z
m-641 -31 c-7 -12 -145 -56 -152 -49 -11 11 -1 17 73 42 63 21 89 23 79 7z
m764 -7 c0 -8 -4 -15 -10 -15 -5 0 -10 7 -10 15 0 8 5 15 10 15 6 0 10 -7 10
-15z m-122 -57 c-2 -6 -20 -17 -39 -24 -19 -7 -193 -73 -388 -148 -195 -75
-357 -134 -360 -131 -10 11 20 24 244 110 127 49 298 114 380 145 167 64 168
65 163 48z m-1003 -18 c-3 -5 -11 -10 -16 -10 -6 0 -7 5 -4 10 3 6 11 10 16
10 6 0 7 -4 4 -10z m675 -7 c0 -5 -34 -20 -76 -35 -88 -31 -96 -16 -9 17 66
25 85 29 85 18z m-715 -13 c-3 -5 -10 -10 -16 -10 -5 0 -9 5 -9 10 0 6 7 10
16 10 8 0 12 -4 9 -10z m1196 -11 c9 -17 8 -23 -2 -30 -23 -14 -28 -10 -27 21
1 35 13 39 29 9z m-1250 -9 c-25 -21 -41 -26 -41 -11 0 5 12 14 28 19 39 15
40 14 13 -8z m1109 5 c0 -8 -69 -39 -180 -83 -364 -143 -683 -263 -692 -260
-14 5 27 22 332 138 146 56 324 125 395 154 135 56 145 59 145 51z m37 -1 c-3
-3 -12 -4 -19 -1 -8 3 -5 6 6 6 11 1 17 -2 13 -5z m-1207 -19 c0 -8 -12 -21
-27 -30 l-28 -16 28 6 c15 3 27 1 27 -5 0 -5 -6 -10 -14 -10 -7 0 -19 -7 -26
-15 -17 -21 -28 -11 -26 26 1 28 18 43 64 58 1 1 2 -6 2 -14z m630 -24 c0 -5
-55 -30 -122 -56 -68 -27 -138 -54 -155 -62 -18 -7 -33 -9 -33 -4 0 4 60 32
133 60 72 28 141 56 152 61 26 11 25 11 25 1z m704 -7 c9 -22 -3 -32 -14 -14
-12 19 -12 30 -1 30 5 0 12 -7 15 -16z m-184 -12 c0 -14 -318 -137 -328 -127
-3 3 12 12 34 21 21 8 93 37 159 64 131 53 135 54 135 42z m210 -48 c0 -8 -4
-12 -10 -9 -5 3 -10 13 -10 21 0 8 5 12 10 9 6 -3 10 -13 10 -21z m-1225 7
c-6 -5 -35 -16 -65 -26 -30 -10 -72 -26 -93 -37 -22 -11 -42 -17 -45 -14 -10
10 6 18 100 52 99 35 118 40 103 25z m1015 -9 c0 -4 -17 -14 -37 -21 -21 -8
-134 -51 -251 -97 -203 -80 -272 -102 -209 -68 31 17 477 193 490 194 4 0 7
-4 7 -8z m110 -122 c0 -11 -4 -20 -10 -20 -5 0 -10 9 -10 20 0 11 5 20 10 20
6 0 10 -9 10 -20z m-1150 -8 c0 -5 -19 -17 -42 -27 -24 -10 -51 -25 -61 -34
-13 -11 -20 -12 -29 -3 -6 6 -10 14 -7 16 3 3 121 51 137 55 1 1 2 -3 2 -7z
m-150 -67 c0 -8 -4 -15 -10 -15 -5 0 -10 7 -10 15 0 8 5 15 10 15 6 0 10 -7
10 -15z m135 -45 c-3 -5 -13 -10 -21 -10 -8 0 -14 5 -14 10 0 6 9 10 21 10 11
0 17 -4 14 -10z m-15 -89 c0 -12 -138 -66 -147 -58 -10 11 1 17 69 43 72 26
78 27 78 15z m-20 -51 c-34 -19 -120 -49 -120 -41 0 11 88 49 115 50 17 0 17
-1 5 -9z m5 -30 c-3 -5 -10 -10 -16 -10 -5 0 -30 -10 -54 -21 -25 -12 -49 -19
-52 -15 -8 8 -7 9 52 34 54 23 80 28 70 12z m5 -29 c0 -11 -120 -55 -127 -47
-9 9 -4 11 57 34 65 24 70 25 70 13z m-37 -82 c-4 -4 -25 -15 -45 -24 -31 -13
-38 -13 -38 -1 0 7 17 20 38 28 37 15 61 13 45 -3z"/>
<path d="M1340 3995 c-19 -7 -28 -14 -20 -14 8 0 29 6 45 14 39 17 21 18 -25
0z"/>
<path d="M4235 5161 c-21 -4 -31 -13 -33 -29 -2 -13 2 -22 10 -23 7 0 54 0
103 1 50 0 111 -3 138 -8 103 -20 22 25 -97 53 -65 16 -74 16 -121 6z"/>
<path d="M4308 4563 c6 -2 18 -2 25 0 6 3 1 5 -13 5 -14 0 -19 -2 -12 -5z"/>
<path d="M4378 4553 c7 -3 16 -2 19 1 4 3 -2 6 -13 5 -11 0 -14 -3 -6 -6z"/>
<path d="M5235 4440 c-3 -5 -1 -10 4 -10 6 0 11 5 11 10 0 6 -2 10 -4 10 -3 0
-8 -4 -11 -10z"/>
<path d="M4676 4113 c-6 -14 -5 -15 5 -6 7 7 10 15 7 18 -3 3 -9 -2 -12 -12z"/>
<path d="M4475 3810 c-4 -17 -5 -34 -2 -36 2 -3 7 10 11 27 8 42 0 50 -9 9z"/>
<path d="M3424 3615 c6 -16 5 -18 -5 -7 -22 21 -42 15 -37 -13 3 -13 1 -22 -3
-19 -10 6 -49 -27 -49 -42 0 -6 -6 -17 -14 -23 -11 -10 -17 -8 -25 6 -7 12
-10 13 -11 4 0 -7 -6 -11 -14 -8 -7 3 -19 0 -25 -6 -6 -6 -11 -7 -11 -2 0 4
-9 0 -20 -10 -10 -9 -33 -18 -51 -19 -23 -1 -34 -8 -40 -24 -5 -12 -5 -22 -1
-22 4 0 0 -4 -8 -10 -12 -8 -12 -10 4 -16 10 -4 21 -2 25 3 12 20 48 25 55 7
9 -22 1 -30 -34 -38 l-30 -6 2 -197 3 -197 120 -30 121 -29 119 40 120 40 5
189 c4 156 3 191 -9 200 -17 13 -21 35 -21 132 0 39 -2 72 -5 72 -2 0 -10 -12
-18 -26 -13 -24 -15 -25 -30 -10 -15 15 -17 13 -23 -34 -4 -33 -13 -54 -24
-60 -24 -13 -32 9 -24 63 4 28 2 37 -4 29 -7 -11 -10 -9 -15 7 -3 13 -1 19 5
15 6 -4 2 6 -8 22 -24 39 -29 43 -20 19z m-169 -145 c13 0 25 6 28 13 9 25 16
0 10 -36 -4 -29 -10 -36 -27 -36 -11 0 -30 -1 -41 -3 -16 -2 -21 3 -23 31 -3
31 18 64 26 41 2 -6 14 -10 27 -10z m329 -39 c4 -5 -3 -7 -14 -4 -23 6 -26 13
-6 13 8 0 17 -4 20 -9z"/>
<path d="M3060 3430 c0 -5 5 -10 11 -10 5 0 7 5 4 10 -3 6 -8 10 -11 10 -2 0
-4 -4 -4 -10z"/>
<path d="M4441 2854 c0 -11 3 -14 6 -6 3 7 2 16 -1 19 -3 4 -6 -2 -5 -13z"/>
<path d="M3083 2685 c-29 -8 -72 -26 -95 -41 -110 -68 -178 -116 -178 -126 0
-21 75 4 114 39 62 57 203 113 282 113 32 0 11 -19 -28 -25 -84 -14 -166 -45
-213 -81 -51 -40 -48 -54 13 -54 28 0 32 3 27 19 -6 21 16 32 156 75 47 14 93
34 103 44 15 18 15 20 0 32 -23 20 -120 22 -181 5z"/>
<path d="M2792 2550 c-21 -20 -30 -50 -14 -50 6 1 44 70 38 70 -1 0 -12 -9
-24 -20z"/>
<path d="M2750 2437 c-116 -48 -229 -129 -260 -187 -16 -29 -7 -35 15 -10 10
11 24 20 32 20 7 0 13 6 13 14 0 14 148 114 228 155 39 20 52 31 35 31 -5 0
-33 -11 -63 -23z"/>
<path d="M1474 2400 c-41 -13 -59 -34 -42 -48 38 -31 190 -42 287 -21 67 14
80 31 44 55 -23 15 -50 19 -143 21 -63 1 -129 -2 -146 -7z"/>
<path d="M2858 2383 c-10 -2 -18 -9 -18 -14 0 -12 10 -11 40 6 24 14 14 18
-22 8z"/>
<path d="M2763 2351 c-34 -16 -86 -45 -115 -63 -29 -19 -61 -37 -70 -41 -10
-3 -18 -11 -18 -16 0 -6 -7 -8 -15 -5 -11 4 -16 -5 -21 -35 -4 -23 -11 -41
-16 -41 -5 0 -7 8 -4 18 5 16 -10 24 -111 56 -65 21 -124 40 -131 43 -10 4
-13 -2 -10 -18 2 -19 21 -29 118 -64 63 -23 128 -47 143 -53 16 -7 43 -13 60
-15 28 -2 32 1 32 23 0 17 -6 26 -20 28 -44 7 -49 11 -32 30 9 9 45 32 81 51
36 19 62 39 59 44 -3 5 0 7 8 5 20 -7 71 21 63 34 -4 6 -3 8 4 4 15 -9 59 13
59 30 0 8 -1 14 -1 14 -1 0 -29 -13 -63 -29z"/>
<path d="M1775 2332 c-37 -19 -241 -28 -305 -13 -55 13 -72 -2 -63 -55 3 -20
1 -40 -7 -49 -9 -10 -9 -15 -1 -15 16 0 13 -28 -4 -37 -13 -8 -13 -11 0 -29
29 -42 225 -72 379 -58 74 7 104 23 49 25 -25 2 -26 2 -5 6 15 3 22 10 18 19
-3 8 -8 61 -12 119 -4 58 -10 105 -13 104 -3 -1 -19 -8 -36 -17z"/>
<path d="M1312 2245 c0 -16 2 -22 5 -12 2 9 2 23 0 30 -3 6 -5 -1 -5 -18z"/>
<path d="M1848 2213 c7 -3 16 -2 19 1 4 3 -2 6 -13 5 -11 0 -14 -3 -6 -6z"/>
<path d="M1338 2198 c5 -5 16 -8 23 -6 8 3 3 7 -10 11 -17 4 -21 3 -13 -5z"/>
<path d="M4647 1923 c-4 -3 -7 -11 -7 -17 0 -6 5 -5 12 2 6 6 9 14 7 17 -3 3
-9 2 -12 -2z"/>
<path d="M440 1889 c0 -5 5 -7 10 -4 6 3 10 8 10 11 0 2 -4 4 -10 4 -5 0 -10
-5 -10 -11z"/>
<path d="M443 1825 c0 -27 2 -38 4 -22 2 15 2 37 0 50 -2 12 -4 0 -4 -28z"/>
<path d="M1161 1738 c1 -16 3 -18 6 -6 2 10 17 18 36 21 31 4 31 4 -5 5 -34 2
-38 -1 -37 -20z"/>
<path d="M1418 1743 c6 -2 18 -2 25 0 6 3 1 5 -13 5 -14 0 -19 -2 -12 -5z"/>
<path d="M2055 1170 c-3 -5 -2 -10 4 -10 5 0 13 5 16 10 3 6 2 10 -4 10 -5 0
-13 -4 -16 -10z"/>
</g>
</svg>
